#!OML:ASF H:\Terrain\Patient Classification 1\Walking\steve\steve.ASF
:FULLY-SPECIFIED
:DEGREES
257
root 8.47377 15.9127 27.267 11.5755 1.6481 -0.355745
lowerback 4.3426 -2.0012 1.83034
upperback -3.43734 -2.29758 4.67355
thorax -5.89973 -1.10731 4.07135
lowerneck -11.5142 1.0899 -0.0478047
upperneck 14.4025 1.95676 -2.88964
head 6.29986 0.709266 -0.740877
rclavicle 8.94531e-015 -9.54166e-015
rhumerus -39.9007 -9.7045 -77.6259
rradius 24.7056
rwrist -12.4499
rhand -23.1913 -36.0627
rfingers 7.12502
rthumb 3.25834 -66.0175
lclavicle 8.94531e-015 -9.54166e-015
lhumerus -5.60527 10.434 83.7251
lradius 19.7049
lwrist 6.34349
lhand -22.2495 -16.7914
lfingers 7.12502
lthumb 4.16781 13.1475
rfemur -41.1576 3.27983 25.5261
rtibia 56.9248
rfoot -27.2908 3.66575
rtoes -5.92724
lfemur -11.7132 5.55945 -19.5778
ltibia 60.2724
lfoot -18.1613 0.476584
ltoes -16.9573
258
root 8.48762 15.9666 27.486 11.4363 1.71297 -0.0993703
lowerback 3.94772 -1.79626 1.79082
upperback -3.14597 -2.06995 4.41639
thorax -5.38494 -1.00346 3.77154
lowerneck -11.7258 0.96114 -0.212253
upperneck 14.3503 1.75611 -2.54007
head 6.31181 0.6307 -0.619367
rclavicle -1.03368e-014 -2.38542e-014
rhumerus -36.8391 -8.56551 -79.5989
rradius 24.5376
rwrist -11.9341
rhand -22.5973 -36.683
rfingers 7.12502
rthumb 3.83194 -66.6283
lclavicle -1.03368e-014 -2.38542e-014
lhumerus -7.23141 12.5804 83.794
lradius 18.0846
lwrist 2.61628
lhand -22.1258 -16.8661
lfingers 7.12502
lthumb 4.28727 13.0705
rfemur -39.5483 3.04797 25.2713
rtibia 55.9854
rfoot -27.7813 3.80638
rtoes -6.87253
lfemur -13.8752 5.55804 -19.9634
ltibia 61.092
lfoot -19.6161 -0.0468175
ltoes -13.8497
259
root 8.50354 16.0062 27.7056 11.3569 1.45839 -0.112613
lowerback 3.56138 -1.46405 1.94733
upperback -2.93213 -1.65082 4.23846
thorax -4.96958 -0.807492 3.43966
lowerneck -11.8162 0.884412 -0.260553
upperneck 14.4623 1.64587 -2.42238
head 6.36015 0.582582 -0.583394
rclavicle 1.98785e-014 -1.59028e-014
rhumerus -34.0946 -7.33491 -81.2748
rradius 24.6802
rwrist -11.8378
rhand -22.4167 -36.9124
rfingers 7.12502
rthumb 4.00639 -66.8544
lclavicle 1.98785e-014 -1.59028e-014
lhumerus -9.00033 14.7077 83.5937
lradius 16.4521
lwrist -1.19296
lhand -21.8991 -16.82
lfingers 7.12502
lthumb 4.50619 13.1121
rfemur -38.0336 3.15386 25.2493
rtibia 55.058
rfoot -28.252 3.76601
rtoes -8.26824
lfemur -15.9856 6.03473 -20.2815
ltibia 61.7183
lfoot -20.8643 1.06392
ltoes -18.1884
260
root 8.51237 16.0531 27.9348 11.256 1.22168 -0.365814
lowerback 3.40911 -1.1144 2.2145
upperback -2.89543 -1.17852 4.18098
thorax -4.87176 -0.58339 3.18726
lowerneck -11.6193 0.684132 -0.254494
upperneck 14.515 1.41031 -2.65691
head 6.34221 0.451013 -0.680665
rclavicle -1.8487e-014 -9.54166e-015
rhumerus -31.806 -5.5842 -82.8123
rradius 25.167
rwrist -12.5647
rhand -23.0425 -37.2678
rfingers 7.12502
rthumb 3.40208 -67.2204
lclavicle -1.8487e-014 -9.54166e-015
lhumerus -11.3102 17.3935 83.118
lradius 15.1
lwrist -5.62769
lhand -21.6039 -16.9908
lfingers 7.12502
lthumb 4.79124 12.935
rfemur -36.3961 3.42098 25.4862
rtibia 54.0105
rfoot -28.6397 3.80275
rtoes -8.26062
lfemur -18.2495 6.36482 -20.2177
ltibia 62.2137
lfoot -21.7112 1.91071
ltoes -22.0556
261
root 8.51334 16.1013 28.1707 11.0472 1.30215 -0.831565
lowerback 3.30495 -0.854348 2.68317
upperback -2.83933 -0.811094 4.19914
thorax -4.77495 -0.416316 2.91141
lowerneck -11.8977 0.509425 -0.65975
upperneck 15.1091 1.20652 -2.29117
head 6.5729 0.351326 -0.515681
rclavicle 2.3059e-014 -6.83819e-014
rhumerus -29.6434 -3.79391 -84.0786
rradius 25.5992
rwrist -13.536
rhand -22.9997 -37.3838
rfingers 7.12502
rthumb 3.44341 -67.3358
lclavicle 2.3059e-014 -6.83819e-014
lhumerus -13.856 19.6874 82.3696
lradius 14.132
lwrist -9.5154
lhand -21.1587 -17.2897
lfingers 7.12502
lthumb 5.22107 12.626
rfemur -34.5152 3.54423 26.0236
rtibia 52.8413
rfoot -29.0008 4.00661
rtoes -7.29102
lfemur -20.4538 6.37614 -19.731
ltibia 62.6053
lfoot -22.4068 1.89255
ltoes -22.3575
262
root 8.52688 16.1433 28.4175 10.7971 1.54948 -1.45377
lowerback 3.1146 -0.670524 3.52456
upperback -2.82832 -0.529827 4.22798
thorax -4.67341 -0.303645 2.4452
lowerneck -11.639 0.208531 -1.06856
upperneck 15.185 0.825826 -2.02607
head 6.54649 0.167524 -0.39838
rclavicle 1.45113e-014 -1.11319e-014
rhumerus -27.6577 -2.46739 -84.9742
rradius 25.7797
rwrist -14.1622
rhand -22.6721 -37.1041
rfingers 7.12502
rthumb 3.75976 -67.0507
lclavicle 1.45113e-014 -1.11319e-014
lhumerus -16.6409 21.1785 81.3588
lradius 13.2631
lwrist -12.4475
lhand -21.1607 -17.0773
lfingers 7.12502
lthumb 5.21916 12.8384
rfemur -32.4579 3.25245 26.7443
rtibia 51.6317
rfoot -29.5057 4.35027
rtoes -7.00573
lfemur -22.4401 6.22472 -19.1239
ltibia 62.9402
lfoot -23.3397 1.53794
ltoes -21.6151
263
root 8.5399 16.1703 28.6475 10.5615 1.58598 -1.82405
lowerback 3.67476 -0.449612 4.03052
upperback -3.24705 -0.144698 4.17496
thorax -5.44293 -0.138161 2.09532
lowerneck -11.038 0.0428738 -1.29122
upperneck 15.428 0.600748 -1.82907
head 6.51739 0.0634452 -0.319151
rclavicle 1.63003e-014 -4.6118e-014
rhumerus -26.3861 -1.4515 -85.5866
rradius 26.2653
rwrist -14.3366
rhand -22.2593 -37.3422
rfingers 7.12502
rthumb 4.15839 -67.2814
lclavicle 1.63003e-014 -4.6118e-014
lhumerus -20.1283 21.7757 79.9937
lradius 12.5272
lwrist -14.6053
lhand -21.8348 -16.6704
lfingers 7.12502
lthumb 4.56825 13.2603
rfemur -30.6087 3.25771 27.1485
rtibia 50.4782
rfoot -29.6352 4.15836
rtoes -8.77859
lfemur -24.5198 6.11703 -18.8246
ltibia 63.302
lfoot -24.6029 0.727113
ltoes -20.6546
264
root 8.5399 16.1803 28.8402 10.5608 1.46041 -2.28033
lowerback 3.10489 -0.205346 4.2019
upperback -2.62961 0.117554 4.27571
thorax -4.4719 -0.000566218 2.06652
lowerneck -11.5973 0.00614797 -1.26679
upperneck 14.9716 0.559561 -1.89041
head 6.46887 0.0421664 -0.345859
rclavicle -1.19271e-014 -1.27222e-014
rhumerus -23.0599 0.0399827 -86.2362
rradius 26.8492
rwrist -15.02
rhand -20.8379 -38.8765
rfingers 7.12502
rthumb 5.5309 -68.7843
lclavicle -1.19271e-014 -1.27222e-014
lhumerus -21.5965 22.8996 79.218
lradius 11.9166
lwrist -16.6929
lhand -22.5538 -16.6932
lfingers 7.12502
lthumb 3.87399 13.2513
rfemur -29.3515 3.94951 27.6522
rtibia 49.4134
rfoot -29.3684 3.5363
rtoes -10.3461
lfemur -27.2654 6.10449 -18.3412
ltibia 63.7183
lfoot -25.2247 -0.123896
ltoes -20.081
265
root 8.54947 16.1892 29.0445 10.609 1.42362 -3.07585
lowerback 2.45429 0.0132577 4.87966
upperback -2.07326 0.359181 4.41301
thorax -3.52324 0.116795 1.80512
lowerneck -12.1816 0.0132946 -1.27323
upperneck 14.7582 0.559364 -1.77391
head 6.50127 0.0507405 -0.307489
rclavicle -1.98785e-015 -1.59028e-014
rhumerus -19.7378 1.50907 -86.7481
rradius 27.2437
rwrist -15.9171
rhand -19.3428 -40.3058
rfingers 7.12502
rthumb 6.97426 -70.1709
lclavicle -1.98785e-015 -1.59028e-014
lhumerus -23.3347 23.2369 78.5229
lradius 11.6933
lwrist -17.8472
lhand -22.927 -16.7032
lfingers 7.12502
lthumb 3.51355 13.2476
rfemur -28.0968 4.35512 28.5202
rtibia 48.3723
rfoot -29.5219 3.85409
rtoes -8.72668
lfemur -30.0726 6.05438 -17.4845
ltibia 63.9341
lfoot -24.8218 -0.318122
ltoes -20.8993
266
root 8.5683 16.2109 29.2775 10.3811 1.29872 -3.54271
lowerback 2.06209 0.254405 5.38183
upperback -1.63614 0.636004 4.41458
thorax -2.84243 0.256884 1.50997
lowerneck -12.8092 0.130812 -1.26002
upperneck 15.109 0.697776 -1.54191
head 6.72156 0.131094 -0.222783
rclavicle 7.55382e-015 3.65764e-014
rhumerus -16.7626 2.38569 -86.9751
rradius 27.4153
rwrist -16.2444
rhand -18.8942 -40.2267
rfingers 7.12502
rthumb 7.40726 -70.077
lclavicle 7.55382e-015 3.65764e-014
lhumerus -25.4058 22.7791 77.856
lradius 11.6414
lwrist -17.9993
lhand -22.322 -16.2008
lfingers 7.12502
lthumb 4.09786 13.7396
rfemur -26.3592 4.43667 28.9835
rtibia 47.2603
rfoot -29.7565 4.58401
rtoes -7.44893
lfemur -32.0549 5.9427 -17.0561
ltibia 63.6566
lfoot -24.5915 0.343098
ltoes -22.4523
267
root 8.5883 16.2433 29.5139 10.2538 1.08725 -3.67911
lowerback 3.11652 0.667131 5.97828
upperback -2.40801 1.34904 4.02868
thorax -4.21373 0.558073 0.735137
lowerneck -11.7136 -0.111546 -0.960236
upperneck 15.1919 0.320533 -1.71133
head 6.55765 -0.0428715 -0.360857
rclavicle -2.44505e-014 -4.13472e-014
rhumerus -15.9061 2.59288 -87.1457
rradius 27.8398
rwrist -16.3668
rhand -18.6223 -40.0316
rfingers 7.12502
rthumb 7.66968 -69.8725
lclavicle -2.44505e-014 -4.13472e-014
lhumerus -28.8925 19.0049 77.5677
lradius 11.8719
lwrist -15.8096
lhand -22.9215 -15.6168
lfingers 7.12502
lthumb 3.51889 14.3339
rfemur -24.6571 4.40948 29.0182
rtibia 46.0202
rfoot -29.5828 5.57014
rtoes -5.9322
lfemur -33.7994 5.72236 -16.9954
ltibia 62.7975
lfoot -24.5188 0.705804
ltoes -20.7894
268
root 8.61731 16.2955 29.7707 10.293 0.841872 -3.58938
lowerback 1.37558 1.06849 6.04828
upperback -1.38302 1.64822 3.92864
thorax -2.14758 0.760207 0.6084
lowerneck -12.2082 -0.366302 -1.43001
upperneck 14.4189 0.0298473 -1.54024
head 6.39573 -0.190047 -0.254385
rclavicle 4.57205e-015 -9.54166e-015
rhumerus -11.9421 4.2025 -86.7466
rradius 27.6891
rwrist -17.4117
rhand -18.5284 -40.8516
rfingers 7.12502
rthumb 7.76032 -70.6892
lclavicle 4.57205e-015 -9.54166e-015
lhumerus -29.5066 16.1797 78.8467
lradius 11.5628
lwrist -13.9496
lhand -26.4094 -15.9405
lfingers 7.12502
lthumb 0.150293 14.0392
rfemur -22.9267 3.9344 28.7424
rtibia 44.762
rfoot -29.6558 6.86205
rtoes -4.44388
lfemur -35.5046 5.20042 -17.0624
ltibia 61.5858
lfoot -24.3333 -0.587186
ltoes -13.7658
